# xmcd
#
# Track frame offsets:
#	150
#	16075
#	29266
#	44784
#	60775
#	79272
#	95731
#	109036
#	121345
#	134805
#
# Disc length: 2019 seconds
#
# Revision: 2
# Processed by: cddbd v1.5.2PL0 Copyright (c) Steve Scherf et al.
# Submitted via: audiograbber 1.81.03
#
DISCID=8307e10a
DTITLE=Gil`Grand - Somebody's Someone
DYEAR=2006
DGENRE=Country
TTITLE0=These Wheels Won't Roll
TTITLE1=Quit Teasin Me
TTITLE2=Never Saw Her Leavin Comin
TTITLE3=Somebody's Someone
TTITLE4=Good Days Bad Days
TTITLE5=Let Her Go
TTITLE6=Angels And Devils
TTITLE7=Honky-tonk Cool
TTITLE8=I Tried Goodbye
TTITLE9=Lost Her Love On Our Last Date
EXTD=
EXTT0=
EXTT1=
EXTT2=
EXTT3=
EXTT4=
EXTT5=
EXTT6=
EXTT7=
EXTT8=
EXTT9=
PLAYORDER=
